# xmcd
#
# Track frame offsets: 
#        150
#        13538
#        25812
#        36110
#        50473
#        59240
#        73119
#        83505
#        93585
#        105997
#        117661
#        137261
#        152323
#        170315
#        181797
#        196655
#        211048
#        221639
#        235480
#        245955
#        256897
#        271140
#        278862
#        290228
#        301736
#        314425
#        328006
#        341773
#
# Disc length: 4715 seconds
#
# Revision: 0
# Processed by: cddbd v1.5.2PL0 Copyright (c) Steve Scherf et al.
# Submitted via: ExactAudioCopyFreeDBPlugin 1.0
#
DISCID=9312691c
DTITLE=Rangers - Zlata kolekce [CD1)
DYEAR=2015
DGENRE=Country
TTITLE0=Pole s bavlnou (Cotton Fields)
TTITLE1=Zvednete kotvy (Sloop John B.)
TTITLE2=Ta zem je tva zem (This Land Is Your Land)
TTITLE3=Tulak (Frogg No. 2)
TTITLE4=Oh, Shenandoah
TTITLE5=Colorado
TTITLE6=900 mil (900 Miles)
TTITLE7=Kral silnic (King Of The Road)
TTITLE8=Kingston Town (Jamaica Farewell)
TTITLE9=Neplac mala (Don't Cry, Suzanne)
TTITLE10=Balicek karet (Texas Ranger)
TTITLE11=Smutny psani (A Letter Edged In Black)
TTITLE12=Otec a syn
TTITLE13=O. K. (The Great Snowman)
TTITLE14=Tvym snum zlym (Deep Blue Sea)
TTITLE15=Rakosi (Water Is Wide)
TTITLE16=Napis kridou
TTITLE17=500 mil (Five Hundred Miles)
TTITLE18=Vim, vim (Green, Green)
TTITLE19=Laska je vec kouzelna (Love Is Kind, Love Is Wine)
TTITLE20=Julianne
TTITLE21=Modry mesic (Blue Moon Of Kentucky)
TTITLE22=Pojdte sem
TTITLE23=Mam radost (I Take A Lot Of Pride In What I Am)
TTITLE24=Prazdne nadrazi
TTITLE25=Nos pro trable (Nose For Trouble)
TTITLE26=Vina vina (The Green Leaves Of Summer)
TTITLE27=O malo vic (Little Bit Of Happiness)
EXTD=
EXTT0=
EXTT1=
EXTT2=
EXTT3=
EXTT4=
EXTT5=
EXTT6=
EXTT7=
EXTT8=
EXTT9=
EXTT10=
EXTT11=
EXTT12=
EXTT13=
EXTT14=
EXTT15=
EXTT16=
EXTT17=
EXTT18=
EXTT19=
EXTT20=
EXTT21=
EXTT22=
EXTT23=
EXTT24=
EXTT25=
EXTT26=
EXTT27=
PLAYORDER=
